# xmcd
#
# Track frame offsets: 
#        150
#        17893
#        36220
#        62684
#        77180
#        101868
#        116941
#        135603
#        163175
#        180548
#        200265
#        213097
#        230009
#        253847
#
# Disc length: 3725 seconds
#
# Revision: 0
# Processed by: cddbd v1.5.2PL0 Copyright (c) Steve Scherf et al.
# Submitted via: ExactAudioCopy v0.95b4
#
DISCID=ca0e8b0e
DTITLE=Eric Clapton - Clapton
DYEAR=2010
DGENRE=Blues
TTITLE0=Eric Clapton - Travelin' Alone
TTITLE1=Eric Clapton - Rocking Chair
TTITLE2=Eric Clapton - River Runs Deep
TTITLE3=Eric Clapton - Judgement Day
TTITLE4=Eric Clapton - How Deep Is The Ocean
TTITLE5=Eric Clapton - My Very Good Friend The Milkman
TTITLE6=Eric Clapton - Can't Hold Out Much Longer
TTITLE7=Eric Clapton - That's No Way To Get Along
TTITLE8=Eric Clapton - Everything Will Be Alright
TTITLE9=Eric Clapton - Diamonds Made From Rain
TTITLE10=Eric Clapton - When Somebody Thinks You're Wonderful
TTITLE11=Eric Clapton - Hard Times Blues
TTITLE12=Eric Clapton - Run Back To Your Side
TTITLE13=Eric Clapton - Autumn Leaves
EXTD=
EXTT0=
EXTT1=
EXTT2=
EXTT3=
EXTT4=
EXTT5=
EXTT6=
EXTT7=
EXTT8=
EXTT9=
EXTT10=
EXTT11=
EXTT12=
EXTT13=
PLAYORDER=
